<svg width="124" height="95" viewBox="0 0 124 95" fill="none" xmlns="http://www.w3.org/2000/svg">
<rect x="104.816" y="53.2651" width="2.5152" height="17.5152" fill="#9CA3AF" stroke="#9CA3AF" stroke-width="1.4848"/>
<rect x="86.8164" y="50.2651" width="2.5152" height="18.5152" fill="#9CA3AF" stroke="#9CA3AF" stroke-width="1.4848"/>
<path d="M98.0498 73.0071L106.177 69.9882L111.868 73.8312L108.226 73.4555C107.801 73.4116 107.377 73.5533 107.063 73.8444L103.173 77.4569V74.8361C103.173 74.0692 102.589 73.4285 101.825 73.3576L98.0498 73.0071Z" fill="#9CA3AF" stroke="#9CA3AF" stroke-width="1.4848"/>
<path d="M78.5659 69.4138L88.982 67.3938L89.9441 72.5251L88.2779 71.044C87.8918 70.7008 87.3552 70.583 86.8608 70.7328L82.5499 72.0391C83.3192 71.1748 82.7842 69.7486 81.5799 69.653L78.5659 69.4138Z" fill="#9CA3AF" stroke="#9CA3AF" stroke-width="1.4848"/>
<path d="M77.074 76.5227C77.074 81.5227 62.7471 83.5227 45.074 83.5227C27.4009 83.5227 13.074 81.5227 13.074 76.5227C13.074 71.5227 27.4009 69.5227 45.074 69.5227C62.7471 69.5227 77.074 71.5227 77.074 76.5227Z" fill="#9CA3AF"/>
<path d="M53.8496 32.6918C53.8473 31.1408 63.2623 24.219 73.4287 17.1974C86.7865 7.97158 105.06 12.5002 113.052 26.6308L123.926 45.8581L95.8727 60.8556C84.9899 66.6736 71.4397 63.2057 64.9487 52.7105C59.3538 43.6641 53.8521 34.3484 53.8496 32.6918Z" fill="#E5E7EB"/>
<path d="M37.7134 83.5227C33.7041 48.9847 49.2386 33.2173 64.94 24.2225C76.9983 20.5997 82.1573 31.8235 74.3899 39.9747C48.4988 54.9913 47.8579 66.3146 47.0193 83.5227H37.7134Z" fill="#E5E7EB"/>
<path d="M75.4355 43.9177V43.9177C79.3285 52.8438 90.0482 56.4968 98.5817 51.8052L116.557 41.9224" stroke="#9CA3AF" stroke-width="1.4848" stroke-linecap="round"/>
<path d="M103.074 42.5227L108.618 39.4678C111.597 37.8266 115.34 38.847 117.074 41.7727V41.7727" stroke="#9CA3AF" stroke-width="1.4848" stroke-linecap="round"/>
<path d="M100.677 35.0698L104.723 32.3725C107.41 30.5814 111.05 31.4236 112.677 34.2127V34.2127" stroke="#9CA3AF" stroke-width="1.4848" stroke-linecap="round"/>
<rect x="12.074" y="36.5227" width="3" height="28" fill="#E5E7EB"/>
<path d="M22.217 48.2187C22.214 47.943 21.9882 47.722 21.7125 47.7249C17.3022 47.7722 13.7652 51.3859 13.8124 55.7962C13.8154 56.0719 14.0413 56.2929 14.3169 56.29C18.7273 56.2427 22.2643 52.6291 22.217 48.2187Z" fill="#E5E7EB"/>
<path d="M4.3565 42.2187C4.35945 41.943 4.58531 41.722 4.86095 41.7249C9.27133 41.7722 12.8083 45.3859 12.761 49.7962C12.7581 50.0719 12.5322 50.2929 12.2566 50.29C7.84621 50.2427 4.30922 46.6291 4.3565 42.2187Z" fill="#E5E7EB"/>
<circle cx="13.574" cy="36.0227" r="3.5" fill="#D1D5DB"/>
<path d="M10.074 66.2227C10.074 64.7315 11.2828 63.5227 12.774 63.5227H14.374C15.8651 63.5227 17.074 64.7315 17.074 66.2227C17.074 66.3884 16.9397 66.5227 16.774 66.5227H10.374C10.2083 66.5227 10.074 66.3884 10.074 66.2227Z" fill="#D1D5DB"/>
<path d="M99.5536 80.6235C99.8943 80.3083 100.435 80.6374 100.311 81.0847L99.4053 84.356C98.3966 87.9999 96.1115 91.1598 92.9668 93.2591C92.5457 93.5402 91.991 93.1887 92.0653 92.6879L92.0787 92.5982C92.6422 88.8035 94.4842 85.3147 97.2999 82.7091L99.5536 80.6235Z" fill="#D1D5DB"/>
<path d="M92.3173 76.3321C92.1601 75.814 91.4221 75.8269 91.2831 76.3503L90.267 80.1777C89.1351 84.4411 89.5738 88.9695 91.5029 92.9364C91.7612 93.4676 92.527 93.4406 92.7472 92.8925L92.7866 92.7944C94.4555 88.6414 94.6569 84.0432 93.3574 79.7602L92.3173 76.3321Z" fill="#D1D5DB"/>
<path d="M84.3455 81.0415C83.9845 80.7497 83.4674 81.1143 83.6209 81.5523L84.7432 84.7556C85.9934 88.3239 88.4849 91.3239 91.7629 93.2081C92.2019 93.4603 92.7319 93.0725 92.6242 92.5778L92.6049 92.4892C91.7887 88.7407 89.7174 85.383 86.7337 82.9716L84.3455 81.0415Z" fill="#D1D5DB"/>
</svg>
