<svg width="256" height="256" viewBox="0 0 256 256" fill="none" xmlns="http://www.w3.org/2000/svg">
<g clip-path="url(#clip0_2941_5703)">
<path d="M188.589 84.1022C204.693 104.448 227.34 119.831 233.414 140.462C239.614 161.12 229.518 186.952 211.263 200.284C193.009 213.616 166.874 214.373 142.164 216.48C117.479 218.461 94.2727 221.54 72.439 214.232C50.4795 206.898 29.9194 189.05 20.6921 165.919C11.3127 142.887 13.2661 114.57 26.7282 95.8937C40.1639 77.3436 65.1083 68.4337 88.1153 56.2222C111.122 44.0107 132.166 28.6239 147.518 33.6616C162.897 38.5729 172.458 63.8825 188.589 84.1022Z" fill="#F3F4F6"/>
<path d="M49.5456 179.429L53.0656 186.265C53.6088 187.32 54.5093 188.148 55.6063 188.6L61.0097 190.826C62.3123 191.362 63.7807 191.325 65.0539 190.722L74.0987 186.439C78.361 184.421 79.9619 179.173 77.5514 175.12L75.4621 171.606C74.0938 169.306 74.7804 166.335 77.0197 164.868L80.7593 162.419C83.9969 160.298 84.8988 155.952 82.7726 152.718L78.2014 145.765C77.051 144.015 77.1129 141.734 78.3563 140.049L81.6582 135.575C83.722 132.778 84.3428 129.171 83.3325 125.845L82.9574 124.611C81.0247 118.249 73.537 115.51 67.9554 119.123L65.9274 120.435C62.6062 122.585 61.0783 126.651 62.1621 130.456L63.8067 136.23C64.5013 138.668 63.2608 141.24 60.9202 142.215L55.1539 144.617C51.1504 146.284 49.6108 151.153 51.928 154.819L55.6742 160.745C57.2227 163.195 56.2555 166.448 53.6201 167.654C49.1515 169.698 47.296 175.061 49.5456 179.429Z" fill="#D1D5DB"/>
<path d="M46.0174 185.53L50.1439 189.027C51.0471 189.792 52.1924 190.212 53.3762 190.212H56.8641C58.27 190.212 59.611 189.62 60.5584 188.581L63.9672 184.843C67.1064 181.401 66.5936 176.003 62.8624 173.213C60.7442 171.63 60.2533 168.657 61.7499 166.476L62.0822 165.992C64.2771 162.794 63.4535 158.421 60.2457 156.241L57.1205 154.117C55.3852 152.938 54.5708 150.801 55.0812 148.766L55.825 145.8C56.5139 143.053 55.8606 140.142 54.0638 137.953C50.6419 133.784 44.1828 134.043 41.1061 138.473L40.8083 138.902C38.8802 141.678 38.9967 145.39 41.0953 148.039L42.8583 150.265C44.4362 152.258 44.2685 155.117 42.4686 156.911L41.3047 158.071C38.227 161.139 38.6592 166.24 42.209 168.747L44.9176 170.659C46.714 171.928 46.9757 174.491 45.4726 176.096C42.9238 178.818 43.1721 183.12 46.0174 185.53Z" fill="#E5E7EB"/>
<path d="M77.5375 192.873L75.2178 194.76C74.5491 195.304 73.7106 195.596 72.8486 195.585L71.5286 195.569C70.3411 195.554 69.2136 195.045 68.4176 194.163L66.7788 192.349C64.9243 190.295 65.2692 187.085 67.5175 185.473C68.7943 184.557 69.1088 182.791 68.2265 181.49L68.1405 181.364C66.7963 179.383 67.3393 176.685 69.3451 175.378L70.7348 174.473C72.0026 173.647 72.6125 172.112 72.2574 170.641L71.9568 169.396C71.5541 167.728 71.9758 165.968 73.0908 164.663C75.1689 162.232 78.9877 162.434 80.7983 165.07L80.9618 165.309C82.1177 166.992 82.0189 169.237 80.7195 170.812L79.9076 171.797C78.8249 173.109 78.9164 175.032 80.1156 176.239C82.1587 178.295 81.8331 181.707 79.4328 183.333L78.295 184.103C77.2169 184.833 77.0431 186.352 77.9283 187.307C79.4304 188.927 79.2512 191.479 77.5375 192.873Z" fill="#E5E7EB"/>
<path d="M44.2199 189.983C44.06 188.784 44.9928 187.719 46.2023 187.719H78.5481C79.7576 187.719 80.6904 188.784 80.5305 189.983L76.9622 216.745C76.8298 217.738 75.9822 218.481 74.9798 218.481H49.7706C48.7682 218.481 47.9206 217.738 47.7882 216.745L44.2199 189.983Z" fill="#D1D5DB"/>
<path d="M69.1609 84.5487C69.5154 83.7459 70.656 83.7718 70.9743 84.5898L72.3618 88.1561L76.3836 89.8873C77.1727 90.2269 77.1806 91.3501 76.3963 91.7009L72.6825 93.3624L71.0146 97.1399C70.6687 97.9233 69.5642 97.9233 69.2183 97.1399L67.5503 93.3624L63.7974 91.6835C63.0192 91.3353 63.0192 90.2235 63.7974 89.8754L67.5503 88.1964L69.1609 84.5487Z" fill="#E5E7EB"/>
<path d="M126.759 120.047C126.936 119.646 127.506 119.659 127.666 120.068L128.359 121.851L130.37 122.716C130.765 122.886 130.769 123.448 130.377 123.623L128.52 124.454L127.686 126.343C127.513 126.734 126.96 126.734 126.788 126.343L125.954 124.454L124.077 123.615C123.688 123.44 123.688 122.885 124.077 122.711L125.954 121.871L126.759 120.047Z" fill="#E5E7EB"/>
<path d="M149.38 62.2878C149.592 61.8062 150.277 61.8216 150.468 62.3124L151.3 64.4522L153.713 65.4909C154.187 65.6947 154.191 66.3686 153.721 66.5792L151.493 67.576L150.492 69.8426C150.284 70.3126 149.622 70.3126 149.414 69.8426L148.413 67.576L146.161 66.5687C145.695 66.3598 145.695 65.6927 146.161 65.4838L148.413 64.4765L149.38 62.2878Z" fill="#E5E7EB"/>
<path d="M155.668 181.995C155.845 181.594 156.416 181.607 156.575 182.016L157.268 183.799L159.279 184.665C159.674 184.835 159.678 185.396 159.286 185.572L157.429 186.402L156.595 188.291C156.422 188.683 155.87 188.683 155.697 188.291L154.863 186.402L152.986 185.563C152.597 185.389 152.597 184.833 152.986 184.659L154.863 183.819L155.668 181.995Z" fill="#E5E7EB"/>
<rect x="125.162" y="200.975" width="68.8313" height="4.12988" rx="2.06494" fill="#9CA3AF"/>
<path d="M115.526 151.416L127.915 218.871" stroke="#9CA3AF" stroke-width="4"/>
<path d="M174.72 151.416L162.331 218.871" stroke="#D1D5DB" stroke-width="4"/>
<path d="M182.98 151.416L195.37 218.871" stroke="#9CA3AF" stroke-width="4"/>
<path d="M107.266 151.416L94.8761 218.871" stroke="#D1D5DB" stroke-width="4"/>
<rect x="86.6163" y="148.663" width="121.143" height="6.88313" rx="3.44157" fill="#D1D5DB"/>
<rect x="97.6294" y="200.975" width="68.8313" height="4.12988" rx="2.06494" fill="#D1D5DB"/>
<rect x="166.461" y="145.909" width="22.026" height="2.75325" rx="1" fill="#9CA3AF"/>
<path d="M176.785 147.286L187.11 128.013L169.214 111.494" stroke="#9CA3AF" stroke-width="2"/>
<path d="M161.322 112.026C161.119 111.836 161.108 111.518 161.298 111.315L165.56 106.754C167.377 104.81 170.426 104.707 172.37 106.524C174.314 108.341 174.417 111.39 172.6 113.334L168.338 117.895C168.148 118.098 167.83 118.108 167.627 117.919L161.322 112.026Z" fill="#D1D5DB"/>
<circle cx="159.578" cy="119.753" r="5.50651" fill="#9CA3AF"/>
<circle cx="187.11" cy="128.013" r="2.75325" fill="#9CA3AF"/>
<path d="M151.665 114.993C151.473 114.814 151.463 114.513 151.642 114.322L154.138 111.651C157.771 107.763 163.869 107.556 167.758 111.19C171.646 114.824 171.853 120.922 168.219 124.81L165.723 127.481C165.544 127.672 165.244 127.682 165.052 127.503L151.665 114.993Z" fill="#D1D5DB"/>
<path d="M110.019 147.286C110.019 146.526 110.635 145.909 111.396 145.909H144.435C145.195 145.909 145.811 146.526 145.811 147.286C145.811 148.046 145.195 148.663 144.435 148.663H111.396C110.635 148.663 110.019 148.046 110.019 147.286Z" fill="#9CA3AF"/>
<path d="M112.772 143.758V145.909H127.892C128.473 138.917 118.006 142.682 112.772 143.758Z" fill="#D1D5DB"/>
<path d="M143.058 143.758V145.909H127.938C127.357 138.917 137.824 142.682 143.058 143.758Z" fill="#D1D5DB"/>
<rect x="17.7849" y="217.494" width="217.507" height="2.75325" rx="1.37663" fill="#D1D5DB"/>
</g>
<defs>
<clipPath id="clip0_2941_5703">
<rect width="256" height="256" fill="white"/>
</clipPath>
</defs>
</svg>
