<svg width="24" height="24" viewBox="0 0 24 24" fill="none" xmlns="http://www.w3.org/2000/svg">
<g clip-path="url(#clip0_2663_3802)">
<mask id="mask0_2663_3802" style="mask-type:alpha" maskUnits="userSpaceOnUse" x="0" y="0" width="24" height="24">
<rect width="24" height="24" fill="#D9D9D9"/>
</mask>
<g mask="url(#mask0_2663_3802)">
<path fill-rule="evenodd" clip-rule="evenodd" d="M6 3C6 2.44772 6.44772 2 7 2C7.55228 2 8 2.44772 8 3V4H16V3C16 2.44772 16.4477 2 17 2C17.5523 2 18 2.44772 18 3V4H20C21.1046 4 22 4.89543 22 6V19C22 20.1046 21.1046 21 20 21H4C2.89543 21 2 20.1046 2 19V6C2 4.89543 2.89543 4 4 4H6V3ZM5 8C4.44772 8 4 8.44771 4 9V18C4 18.5523 4.44772 19 5 19H19C19.5523 19 20 18.5523 20 18V9C20 8.44772 19.5523 8 19 8H5Z" fill="#1F2937"/>
<path d="M8.25 10H6.75C6.33579 10 6 10.3358 6 10.75V12.25C6 12.6642 6.33579 13 6.75 13H8.25C8.66421 13 9 12.6642 9 12.25V10.75C9 10.3358 8.66421 10 8.25 10Z" fill="#1F2937"/>
<path d="M17.25 10H15.75C15.3358 10 15 10.3358 15 10.75V12.25C15 12.6642 15.3358 13 15.75 13H17.25C17.6642 13 18 12.6642 18 12.25V10.75C18 10.3358 17.6642 10 17.25 10Z" fill="#1F2937"/>
<path d="M12.75 10H11.25C10.8358 10 10.5 10.3358 10.5 10.75V12.25C10.5 12.6642 10.8358 13 11.25 13H12.75C13.1642 13 13.5 12.6642 13.5 12.25V10.75C13.5 10.3358 13.1642 10 12.75 10Z" fill="#1F2937"/>
<path d="M8.25 14H6.75C6.33579 14 6 14.3358 6 14.75V16.25C6 16.6642 6.33579 17 6.75 17H8.25C8.66421 17 9 16.6642 9 16.25V14.75C9 14.3358 8.66421 14 8.25 14Z" fill="#1F2937"/>
<path d="M12.75 14H11.25C10.8358 14 10.5 14.3358 10.5 14.75V16.25C10.5 16.6642 10.8358 17 11.25 17H12.75C13.1642 17 13.5 16.6642 13.5 16.25V14.75C13.5 14.3358 13.1642 14 12.75 14Z" fill="#1F2937"/>
</g>
</g>
<defs>
<clipPath id="clip0_2663_3802">
<rect width="24" height="24" fill="white"/>
</clipPath>
</defs>
</svg>
