<svg width="24" height="24" viewBox="0 0 24 24" fill="none" xmlns="http://www.w3.org/2000/svg">
<path fill-rule="evenodd" clip-rule="evenodd" d="M4 4C2.89543 4 2 4.89543 2 6V18C2 19.1046 2.89543 20 4 20H20C21.1046 20 22 19.1046 22 18V6C22 4.89543 21.1046 4 20 4H4ZM5 6C4.44772 6 4 6.44772 4 7V17C4 17.5523 4.44772 18 5 18H19C19.5523 18 20 17.5523 20 17V7C20 6.44772 19.5523 6 19 6H5Z"/>
<path d="M11 13H7C6.44772 13 6 13.4477 6 14C6 14.5523 6.44772 15 7 15H11C11.5523 15 12 14.5523 12 14C12 13.4477 11.5523 13 11 13Z" />
<path d="M17 13H15C14.4477 13 14 13.4477 14 14C14 14.5523 14.4477 15 15 15H17C17.5523 15 18 14.5523 18 14C18 13.4477 17.5523 13 17 13Z" />
<path d="M17 9H7C6.44772 9 6 9.44772 6 10C6 10.5523 6.44772 11 7 11H17C17.5523 11 18 10.5523 18 10C18 9.44772 17.5523 9 17 9Z" />
</svg>
