<svg id="icn_quiz" xmlns="http://www.w3.org/2000/svg" width="24" height="24" viewBox="0 0 24 24">
  <rect id="bg" width="24" height="24" fill="none"/>
  <path id="icn_quiz-2" data-name="icn_quiz" d="M2848,14184h-8a2,2,0,0,1-2-2v-8a2,2,0,0,1,2-2h8a2,2,0,0,1,2,2v8A2,2,0,0,1,2848,14184Zm-4.556-9.9-3.068,7.8h1.253l.673-1.8h3.385l.683,1.8h1.253l-3.065-7.8ZM2836,14183h-2a2,2,0,0,1-2-2v-13a2,2,0,0,1,2-2h13a2,2,0,0,1,2,2v2h-2v-1a1,1,0,0,0-1-1h-11a1,1,0,0,0-1,1v11a1,1,0,0,0,1,1h1v2Zm9.241-4.1h-2.485l1.242-3.311,1.242,3.31Z" transform="translate(-2829 -14163)"/>
</svg>
