<svg id="icn_checkbox_indeterminate" width="24" height="24" viewBox="0 0 24 24" fill="none" xmlns="http://www.w3.org/2000/svg">
<path d="M9 22H15C20 22 22 20 22 15V9C22 4 20 2 15 2H9C4 2 2 4 2 9V15C2 20 4 22 9 22Z" fill="white"/>
<path d="M9 22H15C20 22 22 20 22 15V9C22 4 20 2 15 2H9C4 2 2 4 2 9V15C2 20 4 22 9 22Z" stroke="#EBF3FF"/>
<path d="M9 22H15C20 22 22 20 22 15V9C22 4 20 2 15 2H9C4 2 2 4 2 9V15C2 20 4 22 9 22Z" fill="#2A85FF" stroke="#0F6BE6" stroke-width="1.5" stroke-linecap="round" stroke-linejoin="round"/>
<mask id="mask0_841_723" style="mask-type:alpha" maskUnits="userSpaceOnUse" x="3" y="3" width="18" height="18">
<rect x="3" y="3" width="18" height="18" fill="#D9D9D9"/>
</mask>
<g id="indeterminate_icon" mask="url(#mask0_841_723)">
<path d="M9.00005 12.7498C8.78755 12.7498 8.6093 12.6778 8.4653 12.5338C8.3218 12.3903 8.25005 12.2123 8.25005 11.9998C8.25005 11.7873 8.3218 11.6091 8.4653 11.4651C8.6093 11.3216 8.78755 11.2498 9.00005 11.2498H15C15.2125 11.2498 15.3905 11.3216 15.534 11.4651C15.678 11.6091 15.75 11.7873 15.75 11.9998C15.75 12.2123 15.678 12.3903 15.534 12.5338C15.3905 12.6778 15.2125 12.7498 15 12.7498H9.00005Z" fill="white"/>
</g>
</svg>
