<svg id="icn_assignment" xmlns="http://www.w3.org/2000/svg" width="24" height="24" viewBox="0 0 24 24">
  <g id="icn_assignment-2" data-name="icn_assignment">
    <rect id="bg" width="24" height="24" fill="none"/>
    <path id="icn_assignment-3" data-name="icn_assignment" d="M2875,14184v-3.271l5.29-5.29a1.487,1.487,0,0,1,2.118,0l1.15,1.149a1.491,1.491,0,0,1,0,2.122l-5.29,5.289Zm1.548-2.58v1.028h1.029l3.453-3.449-1.032-1.028ZM2868,14183a2,2,0,0,1-2-2v-13a2,2,0,0,1,2-2h13a2,2,0,0,1,2,2v5h-2v-4a1,1,0,0,0-1-1h-11a1,1,0,0,0-1,1v11a1,1,0,0,0,1,1h4v2Zm3-5a1,1,0,0,1,0-2h3a1,1,0,1,1,0,2Zm0-5a1,1,0,1,1,0-2h7a1,1,0,1,1,0,2Z" transform="translate(-2863 -14163)"/>
  </g>
</svg>
