<svg id="icn_lesson" xmlns="http://www.w3.org/2000/svg" width="24" height="24" viewBox="0 0 24 24">
  <rect id="bg" width="24" height="24" fill="none"/>
  <path id="icn_lesson-2" data-name="icn_lesson" d="M2911,14184v-3h-2a1,1,0,1,1,0-2h7a2,2,0,0,1,2,2v3Zm-9-1a2,2,0,0,1-2-2v-13a2,2,0,0,1,2-2h13a2,2,0,0,1,2,2v4h-2v-3a1,1,0,0,0-1-1h-11a1,1,0,0,0-1,1v11a1,1,0,0,0,1,1h3v2Zm10-7a2,2,0,1,1,2,2A2,2,0,0,1,2912,14176Zm-7,2a1,1,0,0,1,0-2h3a1,1,0,0,1,0,2Zm0-5a1,1,0,0,1,0-2h7a1,1,0,0,1,0,2Z" transform="translate(-2897 -14163)"/>
</svg>
