<svg width="214" height="154" viewBox="0 0 214 154" fill="none" xmlns="http://www.w3.org/2000/svg">
<path d="M71.298 154C64.7657 154 58.2431 153.898 51.7303 153.695C42.4243 153.404 32.8014 153.103 23.8573 148.785C17.6005 145.765 12.0592 140.919 7.83247 134.772C5.04402 130.685 2.96738 126.153 1.69086 121.37C1.0664 119.069 0.613251 116.724 0.335142 114.356C-0.426472 107.958 0.113182 101.471 1.92154 95.2876C2.79973 92.3288 3.99631 89.4743 5.49019 86.7747C12.0128 75.0183 23.9095 67.1265 38.13 65.1231C38.2476 65.1098 38.3661 65.1076 38.4841 65.1165C38.5481 65.1195 38.6118 65.1226 38.6768 65.1203L38.7605 65.0971C38.9762 65.032 39.1963 64.9828 39.4192 64.95C61.3509 62.1081 84.536 67.8582 106.466 81.5782C123.422 92.1878 145.894 97.901 175.166 99.044L175.582 99.063C183.73 99.4704 191.613 102.394 198.377 107.52C204.987 112.488 210.021 119.266 212.874 127.037C213.219 127.977 213.536 128.955 213.815 129.945C214.343 131.816 213.73 133.708 212.134 135.147V135.149L212.061 135.214C211.886 135.366 211.701 135.512 211.512 135.648L211.29 135.807C209.42 137.148 207.942 138.208 206.174 139.03C204.98 139.58 203.728 139.992 202.441 140.257C195.308 141.771 188.064 143.174 180.911 144.429C167.019 146.867 152.761 148.878 138.532 150.406C116.201 152.801 93.7573 154.001 71.298 154ZM38.3178 65.5329C38.2742 65.5325 38.2306 65.5351 38.1872 65.5406C24.0997 67.5253 12.3156 75.3396 5.85771 86.9797C4.37858 89.6525 3.19384 92.4786 2.32438 95.4082C0.532407 101.537 -0.00221615 107.965 0.752762 114.306C1.02843 116.654 1.4776 118.978 2.09657 121.259C3.36059 125.996 5.4171 130.485 8.17864 134.533C12.364 140.62 17.8486 145.417 24.0398 148.405C32.9037 152.684 42.4812 152.984 51.7434 153.273C80.6991 154.175 109.682 153.077 138.487 149.987C152.706 148.46 166.955 146.45 180.838 144.013C187.987 142.76 195.226 141.358 202.354 139.845C203.61 139.586 204.832 139.185 205.997 138.648C207.73 137.842 209.193 136.792 211.046 135.464L211.268 135.305C211.43 135.188 211.589 135.064 211.742 134.934L211.785 134.894C213.308 133.558 213.9 131.796 213.41 130.059V130.059C213.134 129.08 212.821 128.112 212.479 127.182C206.744 111.432 191.908 100.301 175.562 99.484L175.148 99.4651C161.777 98.9428 150.077 97.4962 139.379 95.0421C126.609 92.1127 115.461 87.703 106.243 81.9356C84.3969 68.2682 61.3087 62.5396 39.4727 65.3679C39.2697 65.3983 39.0692 65.4436 38.8727 65.5033L38.7219 65.5401C38.635 65.5447 38.5498 65.5412 38.4648 65.5374C38.4144 65.5351 38.3656 65.5329 38.3178 65.5329Z" fill="#F3F4F6"/>
<path d="M211.924 135.053V135.055C211.754 135.202 211.575 135.344 211.39 135.476C208.303 137.691 206.195 139.244 202.398 140.051C195.249 141.568 188.075 142.958 180.875 144.221C166.828 146.686 152.706 148.678 138.51 150.197C109.696 153.293 80.7023 154.391 51.7369 153.484C42.0908 153.183 32.7874 152.862 23.9486 148.595C17.4877 145.477 12.0592 140.548 8.0056 134.652C3.89528 128.674 1.39546 121.601 0.543945 114.331C2.54538 113.456 4.67171 112.901 6.84504 112.688C14.3887 111.967 21.8125 114.736 28.6729 117.958C35.5353 121.177 42.2737 124.941 49.7038 126.426C60.6535 128.615 71.9563 125.638 82.4539 121.826C92.9516 118.014 103.285 113.307 114.357 111.868C129.207 109.936 144.107 114.026 158.525 118.076C173.884 122.389 189.243 126.703 204.603 131.018C206.798 131.633 209.075 132.292 210.786 133.801C211.211 134.175 211.592 134.594 211.924 135.053Z" fill="#D1D5DB"/>
<path d="M211.924 135.053V135.055C211.754 135.202 211.575 135.343 211.39 135.476C209.456 136.863 207.906 137.992 206.085 138.839C199.826 139.457 193.559 139.991 187.283 140.443C171.13 141.604 154.945 142.221 138.729 142.295C105.831 142.463 71.2436 143.496 42.4398 127.482C32.8556 122.153 18.972 133.08 9.47728 127.237C6.74045 125.547 4.1973 123.561 1.8937 121.314C1.27155 119.023 0.820369 116.689 0.543903 114.331C-0.218282 107.961 0.318903 101.503 2.12286 95.3479C2.99562 92.4033 4.18636 89.5629 5.67392 86.8772C10.0849 88.4639 14.3151 90.748 18.3413 93.167C25.7251 97.5983 32.9051 102.63 41.1278 105.167C53.2485 108.907 66.3616 106.851 78.6611 103.757C90.9605 100.664 103.178 96.5426 115.854 96.1949C132.854 95.7293 149.218 102.074 165.043 108.317C180.919 114.582 196.797 120.846 212.676 127.109C213.026 128.059 213.337 129.023 213.612 130.002C214.173 131.991 213.36 133.793 211.924 135.053Z" fill="#F3F4F6"/>
<path d="M57.1337 54.1591C54.7426 52.5436 54.9765 49.0089 57.5051 47.6196C57.5565 47.5914 57.607 47.5621 57.6564 47.5319C57.7831 46.9237 57.9099 46.3154 58.0366 45.7072C58.7825 46.4837 60.2493 46.3371 60.8276 45.4283C58.8112 41.1176 56.1597 37.1352 52.9619 33.6146C52.2649 32.8434 51.8738 31.843 51.8625 30.8024C51.8512 29.7619 52.2206 28.7532 52.9009 27.9671C52.9131 27.9528 52.9252 27.9384 52.9372 27.9239C54.743 27.3127 56.4528 26.4473 58.0156 25.3538C52.6564 16.7243 42.4372 9.86866 40.0082 0C32.7007 7.86481 31.8804 10.6347 24.5729 18.4995C24.5729 18.4995 17.6536 24.7571 16.1601 28.1201C16.527 28.5064 19.8124 29.4335 19.9387 30.193C22.4441 30.3943 26.7847 27.642 26.7847 27.642C26.7847 27.642 17.3107 37.7649 14.4342 44.0001C14.1752 44.5616 13.9292 45.2027 14.1462 45.7818C14.3194 46.2442 14.9409 46.5108 15.3412 46.3271C14.863 46.7893 14.4791 47.3403 14.2108 47.9493C15.0455 48.4835 16.0355 48.72 17.0209 48.6205C18.0063 48.5211 18.9294 48.0915 19.641 47.4012C19.2404 48.1514 18.8397 48.9016 18.4391 49.6517L18.4398 49.6535C18.9811 49.8308 19.4668 50.1465 19.8491 50.5695C20.2313 50.9925 20.4968 51.5082 20.6194 52.0655C20.7419 52.6228 20.7172 53.2025 20.5478 53.7474C20.3783 54.2922 20.07 54.7833 19.6532 55.1722C17.167 57.4896 14.8952 59.9255 14.0628 61.5297C13.2797 63.0388 21.3203 64.8579 23.1289 64.7833C24.9374 64.7087 26.6279 63.9123 28.2613 63.1306C28.1817 63.8771 28.3242 64.6304 28.6708 65.2959C29.5653 65.5135 30.4943 65.5498 31.403 65.4025C32.3117 65.2553 33.1819 64.9276 33.9624 64.4386C33.8904 65.9314 35.7693 66.7558 37.0735 66.333C36.4224 76.6559 36.8986 91.1516 37.5241 106.2H39.0761V66.9281C39.489 67.1379 39.9308 67.285 40.3868 67.3648C43.562 67.9297 47.3936 68.2731 49.4597 65.7917C51.8376 68.1948 56.1953 68.1491 58.5595 65.7544C58.3268 66.1676 58.683 66.8628 59.2098 66.9724C59.8306 67.1015 60.4346 66.7318 60.9617 66.3786C63.348 64.7797 65.7342 63.1809 68.1204 61.582C65.1757 59.5925 60.9927 56.7663 57.1337 54.1591Z" fill="#D1D5DB"/>
<path d="M128.764 49.3549C132.903 49.3549 136.258 45.9926 136.258 41.845C136.258 37.6975 132.903 34.3352 128.764 34.3352C124.626 34.3352 121.271 37.6975 121.271 41.845C121.271 45.9926 124.626 49.3549 128.764 49.3549Z" fill="#F3F4F6"/>
<path d="M145.536 38.2895C145.102 36.8346 143.878 35.8848 142.399 35.6764C142.382 35.6741 142.367 35.6772 142.351 35.6761C142.33 35.6697 142.308 35.6648 142.287 35.6614C140.191 35.4054 138.07 35.868 136.27 36.9739C134.536 38.059 132.515 38.5499 130.472 38.6296C130.46 38.6301 130.448 38.6306 130.436 38.6312C129.677 38.6819 128.951 38.9659 128.359 39.4446C127.766 39.9233 127.335 40.5734 127.124 41.3064C127.102 41.3961 127.109 41.4906 127.143 41.5763C127.178 41.6619 127.239 41.7343 127.318 41.7828C127.544 41.975 127.812 42.1114 128.101 42.1811C128.723 42.3132 129.348 42.4342 129.974 42.5442C131.197 42.7587 132.427 42.9321 133.662 43.0644C136.171 43.3339 138.695 43.4295 141.217 43.3506C142.056 43.3244 142.866 43.2965 143.636 42.925C144.196 42.6479 144.674 42.2296 145.024 41.7112C145.353 41.2129 145.57 40.6484 145.658 40.0573C145.747 39.4661 145.705 38.8628 145.536 38.2895Z" fill="#D1D5DB"/>
<path d="M129.962 48.3027C129.528 46.8478 128.304 45.898 126.824 45.6896C126.808 45.6873 126.793 45.6903 126.776 45.6893C126.755 45.6829 126.734 45.678 126.712 45.6745C124.617 45.4185 122.496 45.8812 120.696 46.9871C118.962 48.0722 116.941 48.5631 114.898 48.6428C114.886 48.6432 114.874 48.6438 114.862 48.6444C114.102 48.6951 113.377 48.9791 112.784 49.4578C112.192 49.9365 111.761 50.5866 111.55 51.3195C111.528 51.4093 111.534 51.5038 111.569 51.5895C111.604 51.6751 111.665 51.7475 111.744 51.796C111.97 51.9882 112.238 52.1246 112.526 52.1942C113.149 52.3264 113.773 52.4474 114.4 52.5574C115.623 52.7719 116.852 52.9453 118.088 53.0776C120.597 53.347 123.121 53.4427 125.642 53.3638C126.482 53.3376 127.292 53.3096 128.062 52.9381C128.621 52.661 129.1 52.2427 129.449 51.7244C129.779 51.2261 129.996 50.6616 130.084 50.0704C130.173 49.4793 130.131 48.8759 129.962 48.3027Z" fill="#D1D5DB"/>
<path d="M193.373 79.6554C190.982 78.0399 191.216 74.5053 193.745 73.116C193.796 73.0877 193.846 73.0585 193.896 73.0283C194.023 72.42 194.149 71.8118 194.276 71.2035C195.022 71.98 196.489 71.8335 197.067 70.9247C195.051 66.614 192.399 62.6316 189.201 59.1109C188.504 58.3397 188.113 57.3393 188.102 56.2988C188.091 55.2582 188.46 54.2496 189.14 53.4634C189.153 53.4491 189.165 53.4347 189.177 53.4202C190.982 52.809 192.692 51.9437 194.255 50.8501C188.896 42.2206 178.677 35.365 176.248 25.4963C168.94 33.3611 168.12 36.1311 160.812 43.9959C160.812 43.9959 153.893 50.2535 152.4 53.6164C152.767 54.0027 156.052 54.9298 156.178 55.6894C158.684 55.8907 163.024 53.1384 163.024 53.1384C163.024 53.1384 153.55 63.2612 150.674 69.4965C150.415 70.0579 150.169 70.6991 150.386 71.2782C150.559 71.7405 151.18 72.0071 151.581 71.8234C151.103 72.2856 150.719 72.8366 150.45 73.4457C151.285 73.9799 152.275 74.2163 153.26 74.1169C154.246 74.0174 155.169 73.5878 155.881 72.8975C155.48 73.6477 155.079 74.3979 154.679 75.1481L154.679 75.1498C155.221 75.3271 155.706 75.6428 156.089 76.0658C156.471 76.4889 156.736 77.0045 156.859 77.5618C156.981 78.1192 156.957 78.6989 156.787 79.2437C156.618 79.7886 156.309 80.2797 155.893 80.6685C153.406 82.986 151.135 85.4218 150.302 87.026C149.519 88.5351 157.56 90.3542 159.368 90.2796C161.177 90.205 162.867 89.4086 164.501 88.627C164.421 89.3734 164.564 90.1268 164.91 90.7923C165.805 91.0099 166.734 91.0461 167.642 90.8989C168.551 90.7516 169.421 90.4239 170.202 89.9349C170.13 91.4277 172.009 92.2521 173.313 91.8293C172.662 102.152 173.138 116.648 173.764 131.696H175.316V92.4245C175.729 92.6342 176.17 92.7814 176.626 92.8612C179.801 93.426 183.633 93.7695 185.699 91.288C188.077 93.6911 192.435 93.6455 194.799 91.2508C194.566 91.6639 194.922 92.3592 195.449 92.4687C196.07 92.5978 196.674 92.2281 197.201 91.8749C199.587 90.2761 201.974 88.6772 204.36 87.0783C201.415 85.0888 197.232 82.2627 193.373 79.6554Z" fill="#D1D5DB"/>
<path d="M13.2436 119.689C13.3992 119.696 13.5533 119.655 13.6849 119.572C13.8165 119.488 13.9193 119.366 13.9794 119.222C14.0395 119.078 14.0539 118.919 14.0208 118.767C13.9877 118.614 13.9086 118.476 13.7942 118.37C13.775 118.293 13.7613 118.238 13.7421 118.162C13.749 118.146 13.7559 118.129 13.7628 118.112C13.9196 117.741 14.1822 117.425 14.5178 117.203C14.8534 116.981 15.247 116.863 15.649 116.865C16.0511 116.866 16.4437 116.987 16.7777 117.211C17.1116 117.436 17.3719 117.754 17.5259 118.126C18.1414 119.612 18.925 121.1 19.1179 122.671C19.2029 123.365 19.1671 124.069 19.012 124.751C20.4576 121.591 21.2082 118.156 21.2131 114.679C21.2134 113.807 21.165 112.935 21.0682 112.068C20.9882 111.357 20.8772 110.652 20.7352 109.951C19.9604 106.149 18.2969 102.586 15.8813 99.5542C14.7121 98.9148 13.7666 97.9317 13.1721 96.7372C12.9567 96.3078 12.8045 95.8494 12.7202 95.3763C12.8521 95.3937 12.9862 95.4045 13.118 95.4132C13.1591 95.4153 13.2024 95.4175 13.2435 95.4197L13.2589 95.4204C13.4039 95.4269 13.5476 95.3913 13.6729 95.3178C13.7981 95.2444 13.8995 95.1362 13.9648 95.0063C14.0301 94.8765 14.0566 94.7305 14.041 94.5859C14.0254 94.4413 13.9685 94.3043 13.8771 94.1914C13.8201 94.1212 13.7632 94.051 13.7062 93.9808C13.6197 93.8725 13.531 93.7663 13.4445 93.6579C13.4345 93.6477 13.4252 93.6368 13.4164 93.6254C13.317 93.5019 13.2175 93.3806 13.118 93.257C13.2996 92.9746 13.5438 92.7381 13.8315 92.5658C14.8283 91.9807 16.2034 92.386 16.9234 93.2896C17.6456 94.1932 17.7818 95.4608 17.531 96.5898C17.2843 97.5505 16.8763 98.462 16.3245 99.2855C16.3785 99.3548 16.4348 99.422 16.4888 99.4913C17.4769 100.765 18.3381 102.132 19.0601 103.574C18.8845 101.959 19.094 100.325 19.6715 98.8066C20.2567 97.3917 21.3536 96.2001 22.3195 94.9769C23.4798 93.5076 25.859 94.1488 26.0634 96.0113C26.0654 96.0293 26.0673 96.0474 26.0692 96.0654C25.9257 96.1465 25.7853 96.2326 25.6479 96.3237C25.4752 96.4393 25.3415 96.6044 25.2641 96.7975C25.1867 96.9906 25.1694 97.2026 25.2143 97.4058C25.2592 97.6089 25.3643 97.7937 25.5158 97.936C25.6673 98.0783 25.8581 98.1714 26.0633 98.2031L26.0843 98.2063C26.0332 98.7246 25.9429 99.2382 25.8141 99.7427C25.4409 101.151 24.7813 102.467 23.8769 103.608C22.9724 104.749 21.8425 105.691 20.5579 106.374C20.4736 106.417 20.3914 106.46 20.3071 106.501C20.694 107.594 21.0033 108.713 21.2325 109.849C21.4376 110.851 21.5806 111.865 21.6606 112.885C21.7586 114.17 21.7529 115.461 21.6433 116.744L21.6498 116.699C21.9266 115.271 22.6865 113.983 23.8011 113.052C25.4567 111.689 27.7957 111.187 29.5817 110.091C29.7716 109.969 29.9923 109.904 30.2178 109.904C30.4434 109.903 30.6644 109.967 30.8548 110.088C31.0452 110.21 31.1971 110.383 31.2925 110.588C31.3879 110.793 31.4228 111.021 31.3932 111.245C31.3908 111.261 31.3883 111.277 31.3859 111.292C31.1196 111.401 30.8604 111.526 30.6097 111.667C30.4662 111.748 30.3257 111.835 30.1883 111.926C30.0157 112.041 29.8819 112.206 29.8046 112.399C29.7272 112.593 29.7098 112.805 29.7547 113.008C29.7996 113.211 29.9047 113.396 30.0562 113.538C30.2077 113.68 30.3986 113.773 30.6038 113.805L30.6248 113.808C30.6399 113.81 30.6529 113.813 30.668 113.815C30.2131 114.903 29.5746 115.905 28.7805 116.777C27.7995 117.832 26.6138 118.675 25.2962 119.254C23.9786 119.834 22.5568 120.137 21.1179 120.147H21.1157C20.7252 121.848 20.1592 123.503 19.4271 125.087H13.3948C13.3731 125.02 13.3537 124.951 13.3342 124.883C13.8926 124.919 14.4532 124.885 15.0034 124.784C14.5558 124.233 14.1083 123.679 13.6607 123.128C13.6507 123.118 13.6414 123.107 13.6326 123.096C13.4056 122.814 13.1764 122.534 12.9494 122.253L12.9493 122.252C12.9372 121.389 13.036 120.527 13.2434 119.689L13.2436 119.689Z" fill="#D1D5DB"/>
<path d="M193.005 125.589C193.16 125.596 193.314 125.555 193.446 125.472C193.577 125.388 193.68 125.266 193.74 125.122C193.8 124.978 193.815 124.819 193.782 124.667C193.749 124.514 193.67 124.375 193.555 124.269C193.536 124.193 193.522 124.138 193.503 124.062C193.51 124.045 193.517 124.029 193.524 124.012C193.681 123.641 193.943 123.325 194.279 123.103C194.614 122.881 195.008 122.763 195.41 122.765C195.812 122.766 196.205 122.887 196.539 123.111C196.873 123.336 197.133 123.654 197.287 124.026C197.902 125.512 198.686 127 198.879 128.571C198.964 129.265 198.928 129.969 198.773 130.651C200.219 127.491 200.969 124.056 200.974 120.579C200.974 119.707 200.926 118.835 200.829 117.968C200.749 117.257 200.638 116.552 200.496 115.851C199.721 112.049 198.058 108.486 195.642 105.454C194.473 104.815 193.528 103.832 192.933 102.637C192.718 102.208 192.566 101.749 192.481 101.276C192.613 101.294 192.747 101.304 192.879 101.313C192.92 101.315 192.963 101.317 193.004 101.32L193.02 101.32C193.165 101.327 193.309 101.291 193.434 101.218C193.559 101.144 193.66 101.036 193.726 100.906C193.791 100.776 193.818 100.63 193.802 100.486C193.786 100.341 193.73 100.204 193.638 100.091C193.581 100.021 193.524 99.9509 193.467 99.8807C193.381 99.7724 193.292 99.6662 193.206 99.5578C193.196 99.5476 193.186 99.5367 193.177 99.5253C193.078 99.4018 192.979 99.2805 192.879 99.1569C193.061 98.8745 193.305 98.638 193.593 98.4657C194.589 97.8806 195.964 98.2859 196.684 99.1895C197.407 100.093 197.543 101.361 197.292 102.49C197.045 103.45 196.637 104.362 196.085 105.185C196.14 105.255 196.196 105.322 196.25 105.391C197.238 106.665 198.099 108.032 198.821 109.474C198.645 107.859 198.855 106.225 199.432 104.706C200.018 103.292 201.115 102.1 202.081 100.877C203.241 99.4075 205.62 100.049 205.824 101.911C205.826 101.929 205.828 101.947 205.83 101.965C205.687 102.046 205.546 102.133 205.409 102.224C205.236 102.339 205.102 102.504 205.025 102.697C204.948 102.891 204.93 103.103 204.975 103.306C205.02 103.509 205.125 103.694 205.277 103.836C205.428 103.978 205.619 104.071 205.824 104.103L205.845 104.106C205.794 104.624 205.704 105.138 205.575 105.643C205.202 107.051 204.542 108.367 203.638 109.508C202.733 110.649 201.603 111.591 200.319 112.273C200.235 112.317 200.152 112.36 200.068 112.401C200.793 114.461 201.248 116.607 201.422 118.785C201.52 120.07 201.514 121.36 201.404 122.644L201.411 122.599C201.688 121.171 202.447 119.883 203.562 118.952C205.218 117.589 207.557 117.087 209.343 115.991C209.533 115.869 209.753 115.804 209.979 115.803C210.204 115.803 210.425 115.867 210.616 115.988C210.806 116.109 210.958 116.283 211.053 116.488C211.149 116.692 211.184 116.92 211.154 117.145C211.152 117.16 211.149 117.176 211.147 117.192C210.881 117.301 210.621 117.426 210.371 117.567C210.227 117.648 210.087 117.734 209.949 117.825C209.777 117.941 209.643 118.106 209.566 118.299C209.488 118.492 209.471 118.704 209.516 118.908C209.561 119.111 209.666 119.296 209.817 119.438C209.969 119.58 210.16 119.673 210.365 119.705L210.386 119.708C210.401 119.71 210.414 119.712 210.429 119.715C209.974 120.803 209.336 121.805 208.542 122.677C207.561 123.732 206.375 124.575 205.057 125.154C203.74 125.734 202.318 126.037 200.879 126.046H200.877C200.486 127.747 199.92 129.403 199.188 130.987H193.156C193.134 130.92 193.115 130.851 193.095 130.783C193.654 130.819 194.214 130.785 194.764 130.684C194.317 130.133 193.869 129.578 193.422 129.028C193.412 129.018 193.402 129.007 193.394 128.996C193.167 128.714 192.937 128.434 192.71 128.153L192.71 128.152C192.698 127.289 192.797 126.427 193.004 125.589L193.005 125.589Z" fill="#D1D5DB"/>
<path d="M121.311 108.1C121.466 108.107 121.62 108.066 121.752 107.983C121.883 107.899 121.986 107.777 122.046 107.633C122.106 107.489 122.121 107.33 122.088 107.177C122.055 107.025 121.975 106.886 121.861 106.78C121.842 106.704 121.828 106.649 121.809 106.573C121.816 106.556 121.823 106.54 121.83 106.523C121.986 106.152 122.249 105.836 122.585 105.614C122.92 105.392 123.314 105.274 123.716 105.276C124.118 105.277 124.511 105.398 124.845 105.622C125.178 105.846 125.439 106.165 125.593 106.537C126.208 108.023 126.992 109.511 127.185 111.082C127.27 111.776 127.234 112.48 127.079 113.162C128.524 110.002 129.275 106.567 129.28 103.09C129.28 102.218 129.232 101.346 129.135 100.479C129.055 99.7681 128.944 99.0624 128.802 98.3617C128.027 94.5601 126.364 90.997 123.948 87.9648C122.779 87.3255 121.833 86.3423 121.239 85.1478C121.024 84.7184 120.871 84.2601 120.787 83.787C120.919 83.8043 121.053 83.8151 121.185 83.8238C121.226 83.826 121.269 83.8281 121.31 83.8303L121.326 83.831C121.471 83.8375 121.615 83.8019 121.74 83.7285C121.865 83.655 121.966 83.5468 122.032 83.417C122.097 83.2871 122.123 83.1411 122.108 82.9965C122.092 82.852 122.035 82.715 121.944 82.6021C121.887 82.5318 121.83 82.4616 121.773 82.3915C121.687 82.2831 121.598 82.1769 121.511 82.0686C121.501 82.0583 121.492 82.0474 121.483 82.0361C121.384 81.9126 121.284 81.7912 121.185 81.6677C121.366 81.3853 121.611 81.1487 121.898 80.9765C122.895 80.3914 124.27 80.7966 124.99 81.7002C125.712 82.6038 125.849 83.8715 125.598 85.0004C125.351 85.9611 124.943 86.8727 124.391 87.6961C124.445 87.7654 124.502 87.8326 124.556 87.902C125.544 89.1754 126.405 90.5427 127.127 91.9845C126.951 90.3693 127.161 88.7354 127.738 87.2172C128.324 85.8023 129.42 84.6107 130.386 83.3875C131.547 81.9183 133.926 82.5595 134.13 84.422C134.132 84.44 134.134 84.458 134.136 84.476C133.993 84.5572 133.852 84.6433 133.715 84.7343C133.542 84.8499 133.408 85.0151 133.331 85.2082C133.254 85.4013 133.236 85.6133 133.281 85.8164C133.326 86.0196 133.431 86.2044 133.583 86.3467C133.734 86.4889 133.925 86.582 134.13 86.6137L134.151 86.617C134.1 87.1352 134.01 87.6488 133.881 88.1533C133.508 89.5618 132.848 90.8778 131.944 92.0188C131.039 93.1598 129.909 94.1013 128.625 94.7841C128.54 94.8275 128.458 94.8708 128.374 94.912C129.099 96.9721 129.554 99.1181 129.727 101.296C129.826 102.581 129.82 103.871 129.71 105.155L129.717 105.11C129.993 103.682 130.753 102.394 131.868 101.463C133.524 100.1 135.863 99.5977 137.649 98.5021C137.838 98.38 138.059 98.3148 138.285 98.3142C138.51 98.3137 138.731 98.3778 138.922 98.499C139.112 98.6202 139.264 98.7935 139.359 98.9983C139.455 99.2032 139.49 99.4311 139.46 99.6553C139.458 99.6712 139.455 99.6871 139.453 99.7031C139.187 99.8118 138.927 99.937 138.677 100.078C138.533 100.159 138.393 100.245 138.255 100.336C138.083 100.452 137.949 100.617 137.871 100.81C137.794 101.003 137.777 101.215 137.822 101.418C137.867 101.621 137.972 101.806 138.123 101.949C138.275 102.091 138.465 102.184 138.671 102.216L138.692 102.219C138.707 102.221 138.72 102.223 138.735 102.225C138.28 103.314 137.641 104.316 136.847 105.188C135.866 106.243 134.681 107.086 133.363 107.665C132.045 108.244 130.624 108.548 129.185 108.557H129.183C128.792 110.258 128.226 111.914 127.494 113.498H121.462C121.44 113.431 121.421 113.361 121.401 113.294C121.959 113.329 122.52 113.296 123.07 113.194C122.623 112.644 122.175 112.089 121.728 111.539C121.718 111.529 121.708 111.518 121.7 111.506C121.472 111.225 121.243 110.945 121.016 110.663L121.016 110.663C121.004 109.8 121.103 108.938 121.31 108.1L121.311 108.1Z" fill="#D1D5DB"/>
<path d="M67.263 147.43L67.0354 147.815L67.1979 147.841L67.263 147.43Z" fill="#1F2937"/>
</svg>
